<svg width="32" height="32" viewBox="0 0 32 32" fill="none" xmlns="http://www.w3.org/2000/svg">
<path d="M6.28961 7.36364C6.71138 3.63822 10.3456 1 14.6892 1H17.3108C21.6544 1 25.2886 3.63822 25.7104 7.36364L26.587 15.5455C26.9048 18.3528 28.2784 21.2001 30.4985 23.2727C31.6084 24.3089 30.7556 26.4545 29.1192 26.4545H2.88082C1.24444 26.4545 0.391586 24.3089 1.50151 23.2727C3.72165 21.2001 5.09516 18.3528 5.41298 15.5455L6.28961 7.36364Z" stroke="#000F55" stroke-width="1.5" stroke-linejoin="round"/>
<path d="M11.3448 26.4545H20.6552V26.9091C20.6552 29.1684 18.571 31 16 31C13.429 31 11.3448 29.1684 11.3448 26.9091V26.4545Z" stroke="#000F55" stroke-width="1.5" stroke-linejoin="round"/>
</svg>
