<svg width="49" height="50" viewBox="0 0 49 50" fill="none" xmlns="http://www.w3.org/2000/svg">
<path d="M23.5 5.96418V44.4856M19.8017 45.0664L22.5227 45.8164C22.8839 45.916 23.0645 45.9658 23.2473 45.986C23.4154 46.0047 23.5846 46.0047 23.7527 45.986C23.9355 45.9658 24.1161 45.916 24.4773 45.8164L27.1983 45.0664C28.1044 44.8166 28.5575 44.6918 29.0084 44.5865C32.4667 43.7791 36.0333 43.7791 39.4916 44.5865C39.9425 44.6918 40.3956 44.8166 41.3017 45.0664C41.7341 45.1856 41.9503 45.2452 42.1246 45.2658C43.5251 45.4312 44.788 44.3018 44.9765 42.7152C45 42.5177 45 42.2648 45 41.759V8.18599C45 7.473 45 7.11651 44.9402 6.8047C44.7702 5.91729 44.2515 5.16758 43.5331 4.77056C43.2807 4.63106 42.976 4.54707 42.3666 4.37909C40.402 3.83757 39.4198 3.56681 38.4345 3.38456C35.663 2.87192 32.837 2.87192 30.0655 3.38456C29.0802 3.56681 28.098 3.83757 26.1334 4.37909L24.4773 4.83559C24.1161 4.93515 23.9355 4.98493 23.7527 5.00518C23.5846 5.0238 23.4154 5.0238 23.2473 5.00518C23.0645 4.98492 22.8839 4.93514 22.5227 4.83558L20.8666 4.37906C18.9021 3.83755 17.9199 3.56679 16.9347 3.38454C14.1631 2.87184 11.3369 2.87182 8.56531 3.38449C7.58008 3.56674 6.59785 3.83748 4.63337 4.37898C4.024 4.54695 3.71932 4.63094 3.4669 4.77043C2.74846 5.16745 2.22983 5.91718 2.05976 6.80462C2 7.11641 2 7.47288 2 8.18583V41.759C2 42.2648 2 42.5177 2.02347 42.7152C2.21201 44.3018 3.47486 45.4312 4.87539 45.2658C5.04972 45.2452 5.2659 45.1856 5.69827 45.0664C6.6044 44.8166 7.05746 44.6918 7.50836 44.5865C10.9667 43.7791 14.5333 43.7791 17.9916 44.5865C18.4425 44.6918 18.8956 44.8166 19.8017 45.0664Z" stroke="black" stroke-width="1.5" stroke-linecap="round" stroke-linejoin="round"/>
</svg>
