<svg width="311" height="278" viewBox="0 0 311 278" fill="none" xmlns="http://www.w3.org/2000/svg">
<path d="M309.999 148.173C309.999 184.418 307.407 216.657 295.865 239.821C290.109 251.374 282.136 260.648 271.153 267.043C260.162 273.442 246.087 277 228.066 277C191.838 277 134.926 271.139 87.1025 256.246C63.1871 248.798 41.6165 239.113 26.0443 226.827C10.4835 214.55 1 199.754 1 182.041C1 146.067 18.2022 100.758 44.4994 64.4262C70.8003 28.0892 105.967 1.03844 141.758 1.00004C227.214 14.1676 269.149 33.0496 289.797 57.4303C310.015 81.3028 310.008 110.636 310 146.004C309.999 146.724 309.999 147.447 309.999 148.173Z" stroke="url(#paint0_linear_1664_97)" stroke-width="2"/>
<defs>
<linearGradient id="paint0_linear_1664_97" x1="155.5" y1="0" x2="155.5" y2="278" gradientUnits="userSpaceOnUse">
<stop offset="0.317708" stop-color="#000F55" stop-opacity="0.56"/>
<stop offset="0.848958" stop-color="#B30048" stop-opacity="0.65"/>
</linearGradient>
</defs>
</svg>
