<svg width="12" height="11" viewBox="0 0 12 11" fill="none" xmlns="http://www.w3.org/2000/svg">
<g clip-path="url(#clip0_1_1959)">
<path d="M8.25414 2.7489L3.94927 4.90134M3.94927 6.02661L8.24049 8.17222M4.0525 5.46397C4.0525 6.14246 3.50248 6.69247 2.824 6.69247C2.14552 6.69247 1.5955 6.14246 1.5955 5.46397C1.5955 4.78549 2.14552 4.23547 2.824 4.23547C3.50248 4.23547 4.0525 4.78549 4.0525 5.46397ZM10.6045 2.18797C10.6045 2.86645 10.0545 3.41647 9.376 3.41647C8.69752 3.41647 8.1475 2.86645 8.1475 2.18797C8.1475 1.50949 8.69752 0.959473 9.376 0.959473C10.0545 0.959473 10.6045 1.50949 10.6045 2.18797ZM10.6045 8.73997C10.6045 9.41846 10.0545 9.96847 9.376 9.96847C8.69752 9.96847 8.1475 9.41846 8.1475 8.73997C8.1475 8.06149 8.69752 7.51147 9.376 7.51147C10.0545 7.51147 10.6045 8.06149 10.6045 8.73997Z" stroke="black" stroke-width="0.546" stroke-linecap="round" stroke-linejoin="round"/>
</g>
<defs>
<clipPath id="clip0_1_1959">
<rect width="10.92" height="10.92" fill="white" transform="translate(0.64 0.00390625)"/>
</clipPath>
</defs>
</svg>
